<svg width="29" height="29" viewBox="0 0 29 29" fill="none" xmlns="http://www.w3.org/2000/svg">
<path d="M24.5543 4.44569C21.8877 1.77913 18.2711 0.281067 14.5 0.281067C10.7289 0.281067 7.11226 1.77913 4.44569 4.44569C1.77913 7.11226 0.281067 10.7289 0.281067 14.5C0.281067 18.2711 1.77913 21.8877 4.44569 24.5543C7.11226 27.2209 10.7289 28.7189 14.5 28.7189C18.2711 28.7189 21.8877 27.2209 24.5543 24.5543C27.2209 21.8877 28.7189 18.2711 28.7189 14.5C28.7189 10.7289 27.2209 7.11226 24.5543 4.44569ZM23.008 5.99335C23.5688 6.55659 24.0726 7.17392 24.5119 7.83632L19.9072 13.2695L16.09 2.57538C18.7107 2.91771 21.1438 4.11983 23.008 5.99335ZM18.2721 15.1836L15.7892 18.1053L12.0172 17.4217L10.7279 13.8164L13.2107 10.8947L16.9828 11.5783L18.2721 15.1836ZM5.99198 5.99335C8.05762 3.91648 10.8146 2.67132 13.7385 2.49472L16.1324 9.19394L4.97069 7.16093C5.28565 6.75017 5.62679 6.36017 5.99198 5.99335ZM3.37792 19.0855C2.72887 17.5006 2.42407 15.7958 2.4837 14.0841C2.54333 12.3724 2.96604 10.693 3.72382 9.15702L10.7252 10.4353L3.37792 19.0855ZM5.99198 23.0066C5.43115 22.4434 4.9274 21.8261 4.48808 21.1637L9.09276 15.7305L12.91 26.4191C10.2899 26.0783 7.85694 24.8781 5.99198 23.0066ZM23.008 23.0066C20.9424 25.0835 18.1854 26.3287 15.2615 26.5053L12.8676 19.806L24.0293 21.8445C23.7141 22.2534 23.373 22.6416 23.008 23.0066ZM18.2748 18.5646L25.6221 9.91444C26.2711 11.4994 26.5759 13.2042 26.5163 14.9159C26.4566 16.6275 26.0339 18.307 25.2762 19.843L18.2748 18.5646Z" fill="white"/>
</svg>
